HIERARCHY
ROOT root
{
	OFFSET	0	13.1	24.9
	CHANNELS 6  Xposition Yposition Zposition Xrotation Yrotation Zrotation
	JOINT spine_1
	{
		OFFSET	0	9.99999	0
		CHANNELS 3  Xrotation Yrotation Zrotation
		JOINT spine_2
		{
			OFFSET	0	112	-10
			CHANNELS 3  Xrotation Yrotation Zrotation
			JOINT spine_3
			{
				OFFSET	0	206.5	19.3
				CHANNELS 3  Xrotation Yrotation Zrotation
				JOINT spine_4
				{
					OFFSET	0	110.4	14.6
					CHANNELS 3  Xrotation Yrotation Zrotation
					JOINT neck_1
					{
						OFFSET	0	71.8	-50.3
						CHANNELS 3  Xrotation Yrotation Zrotation
						JOINT neck_2
						{
							OFFSET	0	86.2	-25.8
							CHANNELS 3  Xrotation Yrotation Zrotation
							JOINT head_ee
							{
								OFFSET	0	179.8	-8.7
								CHANNELS 3  Xrotation Yrotation Zrotation
								End Site
								{
									OFFSET	1	0	0
								}
							}
						}
					}
					JOINT left_clavicle
					{
						OFFSET	-43.2	22.4	-70.8
						CHANNELS 3  Xrotation Yrotation Zrotation
						JOINT left_shoulder
						{
							OFFSET	-93.9	-5.79999	48.7
							CHANNELS 3  Xrotation Yrotation Zrotation
							JOINT left_elbow
							{
								OFFSET	-291.4	-30.8	15.2
								CHANNELS 3  Xrotation Yrotation Zrotation
								JOINT left_lowarm_twist
								{
									OFFSET	-110.7	-3.89999	13.6
									CHANNELS 3  Xrotation Yrotation Zrotation
									JOINT left_hand
									{
										OFFSET	-110.7	-3.89999	13.6
										CHANNELS 3  Xrotation Yrotation Zrotation
										JOINT left_ee
										{
											OFFSET	-80.8	-5.10001	12.1
											CHANNELS 3  Xrotation Yrotation Zrotation
											End Site
											{
												OFFSET	1	0	0
											}
										}
									}
								}
							}
						}
					}
					JOINT right_clavicle
					{
						OFFSET	43.2	22.4	-70.8
						CHANNELS 3  Xrotation Yrotation Zrotation
						JOINT right_shoulder
						{
							OFFSET	93.9	-5.79999	48.7
							CHANNELS 3  Xrotation Yrotation Zrotation
							JOINT right_elbow
							{
								OFFSET	291.4	-30.8	15.2
								CHANNELS 3  Xrotation Yrotation Zrotation
								JOINT right_lowarm_twist
								{
									OFFSET	110.7	-3.89999	13.6
									CHANNELS 3  Xrotation Yrotation Zrotation
									JOINT right_hand
									{
										OFFSET	110.7	-3.89999	13.6
										CHANNELS 3  Xrotation Yrotation Zrotation
										JOINT right_ee
										{
											OFFSET	80.8	-5.10001	12.1
											CHANNELS 3  Xrotation Yrotation Zrotation
											End Site
											{
												OFFSET	1	0	0
											}
										}
									}
								}
							}
						}
					}
				}
			}
		}
	}
	JOINT left_hip
	{
		OFFSET	-82.8	-127.5	0.300001
		CHANNELS 3  Xrotation Yrotation Zrotation
		JOINT left_knee
		{
			OFFSET	-28.2	-396.7	2.2
			CHANNELS 3  Xrotation Yrotation Zrotation
			JOINT left_ankle
			{
				OFFSET	-11.7	-411.3	35.4
				CHANNELS 3  Xrotation Yrotation Zrotation
				JOINT left_toes
				{
					OFFSET	0	-60	-88.6
					CHANNELS 3  Xrotation Yrotation Zrotation
					JOINT left_foot_ee
					{
						OFFSET	-22.5	-16.5	-42.2
						CHANNELS 3  Xrotation Yrotation Zrotation
						End Site
						{
							OFFSET	1	0	0
						}
					}
				}
			}
		}
	}
	JOINT right_hip
	{
		OFFSET	82.8	-127.5	0.300001
		CHANNELS 3  Xrotation Yrotation Zrotation
		JOINT right_knee
		{
			OFFSET	28.2	-396.7	2.2
			CHANNELS 3  Xrotation Yrotation Zrotation
			JOINT right_ankle
			{
				OFFSET	11.7	-411.3	35.4
				CHANNELS 3  Xrotation Yrotation Zrotation
				JOINT right_toes
				{
					OFFSET	0	-60	-88.6
					CHANNELS 3  Xrotation Yrotation Zrotation
					JOINT right_foot_ee
					{
						OFFSET	22.5	-16.5	-42.2
						CHANNELS 3  Xrotation Yrotation Zrotation
						End Site
						{
							OFFSET	1	0	0
						}
					}
				}
			}
		}
	}
}
MOTION
Frames: 16
Frame Time: 0.02
3150.83 706.657 -612.848 -6.14133 67.5075 6.7618 -2.42801 -0.14796 -0.506422 -2.42787 -0.115436 -0.514811 -2.42664 0.0176845 -0.527297 -2.42702 -0.0658131 -0.523473 1.98184 8.05462 0.680737 2.14425 13.5848 1.39594 -0.0 0.0 -0.0 7.21273 -21.3124 13.1348 3.73919 -17.6727 54.0693 3.0647 -56.6156 1.65099 18.5764 0.276309 -2.3465 0.498397 -7.32108 0.257795 -0.0 0.0 -0.0 10.9741 2.54766 -21.8244 -27.1926 19.2823 -54.2136 0.366989 10.3038 -0.0330882 22.6322 -0.234759 2.86279 -0.889092 -17.6158 -1.74937 0.0 0.0 0.0 -20.3658 10.1438 4.93636 -5.24906 0.180252 0.785128 36.5826 11.1225 -4.57226 -26.357 0.0 0.0 -0.0 0.0 -0.0 35.9889 1.47163 -2.57003 -6.68136 -0.216871 -1.00188 -7.26108 2.548 -1.09902 -34.6554 0.0 0.0 0.0 0.0 0.0 
3133.59 705.655 -624.863 -5.98603 67.8248 6.33461 -2.51211 -0.135016 -0.503927 -2.51197 -0.102677 -0.511497 -2.51087 0.0299666 -0.52084 -2.51124 -0.0526652 -0.519036 2.03078 8.40703 1.3131 2.19216 13.6676 2.11671 -0.0 0.0 -0.0 7.29436 -21.4968 13.2979 2.14177 -17.1936 53.949 2.95599 -55.6591 1.56071 17.62 0.280775 -2.22443 0.580057 -6.33653 1.22654 -0.0 0.0 -0.0 11.265 2.03156 -22.421 -26.9231 19.3899 -53.7207 0.35542 9.98561 -0.0310503 22.9948 -0.229268 2.90878 -1.03602 -18.2409 -1.13115 0.0 0.0 0.0 -21.1273 8.76457 4.38546 -5.99721 0.200056 0.898235 37.8056 11.3075 -4.68881 -26.9673 0.0 0.0 -0.0 0.0 -0.0 35.1725 1.66905 -2.82528 -7.30627 -0.231146 -1.09671 -7.83839 3.36399 -1.19103 -34.3878 0.0 0.0 0.0 0.0 0.0 
3111.39 704.685 -641.141 -5.36902 67.8824 5.07256 -2.5877 0.00795226 -0.380891 -2.58762 0.032173 -0.379613 -2.58775 0.12758 -0.358977 -2.58793 0.0692852 -0.37462 2.74138 8.66676 1.52665 2.9179 13.8505 2.31562 -0.0 0.0 -0.0 7.54109 -21.9191 13.8027 0.522755 -16.775 53.6082 2.76631 -53.8704 1.40577 17.0492 0.282469 -2.15155 0.632301 -5.65989 1.86515 -0.0 0.0 -0.0 11.405 2.03813 -22.7217 -26.5558 19.4823 -53.6492 0.370502 10.4003 -0.0337194 23.5265 -0.220687 2.97615 -0.979882 -18.6971 -1.66682 0.0 0.0 0.0 -21.4889 8.21782 4.05174 -6.47516 0.211933 0.970621 39.1806 11.2637 -4.81407 -27.2145 0.0 0.0 -0.0 0.0 -0.0 34.3231 1.81611 -3.10432 -8.38513 -0.253354 -1.26078 -7.95152 4.22771 -1.21247 -34.2637 0.0 0.0 0.0 0.0 0.0 
3077.31 707.389 -656.942 -6.46626 69.0058 5.73399 -2.65115 -0.053126 -0.405979 -2.65106 -0.0271851 -0.408536 -2.65075 0.0779606 -0.401949 -2.65098 0.0135023 -0.409217 1.70665 7.69261 1.38568 1.83376 12.387 2.16641 -0.0 0.0 -0.0 8.07769 -21.6089 15.0093 -2.60462 -15.8243 54.1058 2.57343 -51.8795 1.25196 14.9737 0.282507 -1.88646 0.835494 -6.45654 2.90044 -0.0 0.0 -0.0 11.3613 1.41465 -22.5916 -25.6451 18.7983 -54.2234 0.383345 10.7525 -0.0360768 23.9361 -0.213651 3.028 -0.805793 -17.0142 -1.99875 0.0 0.0 0.0 -22.4832 7.6437 4.00236 -7.53504 0.236113 1.13147 39.5675 10.2685 -4.84032 -26.9523 0.0 0.0 -0.0 0.0 -0.0 33.4314 1.87523 -2.57212 -9.56928 -0.274167 -1.44129 -8.57663 4.33842 -1.30968 -33.8241 0.0 0.0 0.0 0.0 0.0 
3051.7 709.175 -670.4 -6.05881 69.4508 5.03044 -2.63965 0.074618 -0.421773 -2.63955 0.101305 -0.41617 -2.64023 0.204079 -0.37658 -2.6404 0.142044 -0.404084 1.92815 7.18613 1.08504 2.04508 11.7218 1.77986 -0.0 0.0 -0.0 8.44324 -21.9945 15.7832 -4.82071 -14.8173 54.3877 2.40094 -49.9357 1.11807 13.5243 0.276841 -1.70144 0.948721 -6.54381 3.6288 -0.0 0.0 -0.0 11.1524 0.994732 -22.1215 -25.3895 18.4687 -54.6193 0.387889 10.877 -0.0369294 24.1577 -0.209691 3.05603 -0.688011 -15.9587 -2.27271 0.0 0.0 0.0 -22.6736 7.52358 3.8821 -9.95557 0.280148 1.50026 40.605 9.67078 -4.92677 -26.4584 0.0 0.0 -0.0 0.0 -0.0 31.3717 2.17246 -1.86769 -10.7983 -0.291818 -1.62905 -8.36777 4.47299 -1.27806 -33.2026 0.0 0.0 0.0 0.0 0.0 
3025.85 712.049 -681.721 -2.97712 69.8479 1.90383 -2.50505 0.133884 -0.416603 -2.50496 0.160122 -0.40724 -2.50607 0.257848 -0.353551 -2.50619 0.198775 -0.389835 2.32193 6.43407 0.460504 2.42962 10.8871 1.00573 -0.0 0.0 -0.0 8.62456 -21.9379 16.189 -7.28422 -13.8814 55.6259 2.10056 -46.133 0.894596 11.758 0.263611 -1.47623 1.00646 -6.15712 4.18266 -0.0 0.0 -0.0 10.9047 0.927634 -21.5931 -24.1808 18.6394 -54.8841 0.408763 11.4472 -0.0409702 25.1216 -0.191198 3.17778 -0.62334 -15.1303 -2.32298 0.0 0.0 0.0 -21.5812 6.93507 4.36497 -16.5582 0.320739 2.51195 40.6353 7.85519 -4.9189 -25.4312 0.0 0.0 -0.0 0.0 -0.0 29.0665 1.97119 -2.28371 -12.1704 -0.30676 -1.83904 -6.66187 4.41431 -1.01435 -33.0069 0.0 0.0 0.0 0.0 0.0 
2990.77 718.728 -699.213 -1.58633 69.9228 0.893374 -2.48571 0.0646179 -0.487021 -2.48558 0.095477 -0.481923 -2.4863 0.214024 -0.442221 -2.48654 0.141498 -0.470472 4.1144 7.05483 -1.37051 4.33818 13.374 -1.15699 -0.0 0.0 -0.0 9.00986 -22.9588 16.9541 -8.3253 -12.6852 57.7879 1.60426 -38.4714 0.559816 9.98223 0.243318 -1.25032 0.848873 -6.55415 2.94956 -0.0 0.0 -0.0 10.7607 0.970933 -21.2918 -23.716 19.1595 -55.242 0.383155 10.7473 -0.0360413 24.8063 -0.197473 3.13798 -0.569023 -12.6377 -1.61277 0.0 0.0 0.0 -19.631 5.49186 2.84537 -21.1882 0.279624 3.22097 38.9625 12.6273 -4.80803 -26.0424 0.0 0.0 -0.0 0.0 -0.0 25.5756 3.34764 -3.16467 -12.9322 -0.312883 -1.95576 0.288177 5.97625 0.0435062 -31.733 0.0 0.0 0.0 0.0 0.0 
2961.06 722.174 -709.677 0.277313 70.1443 -1.01738 -2.50047 -0.116349 -0.426659 -2.50038 -0.0889636 -0.433198 -2.49957 0.0233532 -0.441621 -2.49984 -0.0466851 -0.439767 4.52262 7.27942 -0.677774 4.73184 13.1262 -0.39347 -0.0 0.0 -0.0 8.91456 -21.481 16.8697 -9.87446 -10.6437 59.8575 1.41755 -35.075 0.447991 9.3096 0.233805 -1.16492 0.615911 -6.36955 1.45454 -0.0 0.0 -0.0 10.3834 1.58281 -20.5278 -22.0974 19.4757 -55.3619 0.398453 11.1658 -0.0389489 25.3569 -0.186375 3.20744 -0.495401 -13.8096 -2.56629 0.0 0.0 0.0 -17.9441 4.30601 2.69556 -26.8208 0.152649 4.07567 38.6828 15.284 -4.81681 -26.4002 0.0 0.0 -0.0 0.0 -0.0 23.5329 4.15006 -3.17539 -15.0702 -0.321774 -2.28365 5.09505 5.38054 0.7567 -30.5874 0.0 0.0 0.0 0.0 0.0 
2936.82 730.776 -723.453 1.48659 67.2631 -2.23085 -2.58543 0.327361 -0.173473 -2.58548 0.337736 -0.152291 -2.58648 0.365347 -0.0614781 -2.58631 0.351052 -0.118407 3.71018 7.23055 -1.61024 3.94914 13.9185 -1.38039 -0.0 0.0 -0.0 8.98467 -21.2448 17.0446 -10.3241 -9.89113 60.1613 1.03019 -27.0357 0.247672 8.46172 0.220385 -1.05745 0.65765 -6.43273 1.70954 -0.0 0.0 -0.0 10.5742 0.969155 -20.8994 -20.5804 20.4938 -55.0663 0.4553 12.7102 -0.0507089 25.4278 -0.184898 3.21637 -0.494403 -11.971 -1.80335 0.0 0.0 0.0 -15.4674 2.72566 2.30562 -32.0289 -0.0389769 4.8517 38.0422 15.7777 -4.76446 -26.9169 0.0 0.0 -0.0 0.0 -0.0 20.6773 6.65259 -4.26531 -13.8664 -0.318273 -2.099 6.47111 8.04001 0.968615 -30.8376 0.0 0.0 0.0 0.0 0.0 
2905.99 733.724 -741.845 3.50859 66.1289 -3.53735 -2.66095 0.319566 -0.0518995 -2.661 0.322221 -0.0314593 -2.66125 0.319572 0.0518606 -2.66111 0.323752 0.000738706 6.58428 7.60831 -2.95774 6.99173 15.4962 -3.24081 -0.0 0.0 -0.0 8.8171 -18.3209 16.8894 -11.3377 -9.22884 60.9902 0.82418 -22.2088 0.161766 7.93247 0.211202 -0.990469 0.675354 -6.18944 1.93197 -0.0 0.0 -0.0 10.5826 0.760314 -20.9062 -19.1944 21.9907 -55.0733 0.485189 13.5148 -0.0574898 25.2476 -0.188631 3.19366 -0.771795 -11.4304 0.184581 0.0 0.0 0.0 -12.8222 0.00923591 1.29218 -39.9169 -0.461488 5.98665 38.6884 19.9468 -4.90425 -27.0184 0.0 0.0 -0.0 0.0 -0.0 17.6366 9.16367 -5.93664 -15.3031 -0.322004 -2.3194 10.7441 9.96107 1.59965 -30.7068 0.0 0.0 0.0 0.0 0.0 
2885.3 733.998 -756.979 3.08926 66.1656 -3.00916 -2.70601 0.26942 0.0662721 -2.70605 0.264657 0.0832818 -2.70569 0.234504 0.14828 -2.70563 0.254979 0.109384 7.42413 7.92097 -3.03612 7.88285 16.0174 -3.42952 -0.0 0.0 -0.0 8.40099 -16.7626 16.0728 -13.6292 -8.90466 61.4606 0.754617 -20.4965 0.136435 7.28376 0.199104 -0.908487 0.794859 -6.45081 2.62837 -0.0 0.0 -0.0 10.5781 0.350351 -20.8744 -17.354 22.6542 -54.042 0.623473 17.1634 -0.0940888 25.9938 -0.172705 3.28765 -0.401852 -9.76686 -1.46791 0.0 0.0 0.0 -12.3792 -4.21118 2.22205 -40.5571 -0.502593 6.07609 35.898 21.7109 -4.66986 -27.5761 0.0 0.0 -0.0 0.0 -0.0 17.4793 9.92962 -6.82697 -18.1322 -0.313193 -2.75332 11.4249 9.08846 1.68841 -31.008 0.0 0.0 0.0 0.0 0.0 
2870.94 738.066 -767.349 3.16187 66.0485 -2.78909 -2.591 0.45361 -0.0717359 -2.59111 0.457255 -0.0427256 -2.59159 0.453098 0.0748971 -2.5913 0.459241 0.00239722 7.56424 7.94649 -2.74183 8.00354 15.7846 -3.09351 -0.0 0.0 -0.0 8.31433 -17.0397 15.8657 -16.1725 -8.68242 62.2092 0.673714 -18.4559 0.109456 6.96552 0.192829 -0.86832 0.829225 -6.33941 2.90762 -0.0 0.0 -0.0 10.7536 0.623307 -21.2576 -14.9121 23.4672 -52.7233 0.701056 19.1513 -0.118269 26.0061 -0.172431 3.2892 -0.473059 -10.7393 -1.4212 0.0 0.0 0.0 -9.71472 -3.89967 2.0516 -41.0487 -0.534826 6.14445 38.2466 21.1886 -4.89086 -27.0245 0.0 0.0 -0.0 0.0 -0.0 15.6972 10.2505 -7.14822 -17.1467 -0.318694 -2.60222 11.8156 9.03916 1.74295 -30.5905 0.0 0.0 0.0 0.0 0.0 
2842.12 747.857 -782.709 3.79472 63.5651 -3.3307 -2.61777 0.562752 -0.0464206 -2.61795 0.564565 -0.010516 -2.61825 0.548636 0.133577 -2.61783 0.562847 0.0452512 8.21168 8.7925 -2.06444 8.68227 16.5253 -2.34873 -0.0 0.0 -0.0 7.88371 -14.9777 15.0468 -19.2715 -8.18836 63.969 0.52942 -14.6956 0.0682696 6.92561 0.192027 -0.863284 1.01261 -5.55662 4.47741 -0.0 0.0 -0.0 10.8313 0.754061 -21.4286 -13.1608 24.1307 -52.1318 0.81624 22.0154 -0.158778 26.2692 -0.166518 3.32228 -0.403867 -9.43952 -1.31751 0.0 0.0 0.0 -5.45533 -5.88199 1.64857 -43.3976 -0.696946 6.46724 39.7444 20.9725 -5.02822 -26.7095 0.0 0.0 -0.0 0.0 -0.0 13.0714 5.74219 -6.7787 -18.0873 -0.3135 -2.74644 12.2314 7.67966 1.78899 -30.6284 0.0 0.0 0.0 0.0 0.0 
2825.25 751.014 -790.845 2.78485 63.5554 -1.66345 -2.49639 0.329953 -0.0165071 -2.49645 0.330334 0.0045223 -2.49649 0.318483 0.0878051 -2.49635 0.328353 0.0364041 6.85305 8.40827 -2.31415 7.2813 16.2542 -2.49819 -0.0 0.0 -0.0 7.56765 -13.9174 14.4192 -20.7638 -7.60353 64.8916 0.470302 -13.1147 0.0540612 7.53212 0.203845 -0.939858 0.892488 -5.34819 3.75306 -0.0 0.0 -0.0 10.9328 0.851139 -21.6481 -11.4613 24.7753 -51.4509 0.936833 24.8947 -0.206792 26.4013 -0.16349 3.33889 -0.104692 -6.81261 -2.15785 0.0 0.0 0.0 -2.50362 -7.54203 -0.372546 -46.1146 -0.900866 6.83212 41.6706 19.7739 -5.17457 -26.4513 0.0 0.0 -0.0 0.0 -0.0 11.1147 8.31508 -7.98622 -15.0036 -0.321682 -2.27344 12.6352 8.48609 1.85236 -30.5179 0.0 0.0 0.0 0.0 0.0 
2809.6 753.774 -798.747 2.749 62.7452 -1.74062 -2.37784 0.286252 0.135184 -2.37788 0.27707 0.153125 -2.37713 0.22987 0.217658 -2.3771 0.26136 0.178623 6.76249 8.6159 -2.0557 7.18599 16.3862 -2.17888 -0.0 0.0 -0.0 7.1017 -12.9887 13.465 -22.6176 -7.16486 66.2291 0.418569 -11.7143 0.0429388 7.43239 0.201958 -0.927258 0.914163 -4.49904 4.25593 -0.0 0.0 -0.0 11.0387 1.00873 -21.8813 -9.73234 25.4518 -51.2907 1.0467 27.4063 -0.255226 26.6965 -0.156587 3.37597 0.130619 -4.89245 -2.90569 0.0 0.0 0.0 1.20164 -8.96763 1.20202 -48.2829 -1.07594 7.11624 41.8995 20.5763 -5.2148 -25.4869 0.0 0.0 -0.0 0.0 -0.0 9.99493 7.62487 -7.67658 -16.1352 -0.321637 -2.44706 12.5856 8.05855 1.84153 -30.6864 0.0 0.0 0.0 0.0 0.0 
2790.04 755.521 -808.264 4.06111 62.2097 -2.48083 -2.25448 0.157625 0.154298 -2.25448 0.147487 0.164016 -2.25404 0.102111 0.195517 -2.25407 0.131707 0.176937 4.57009 9.05922 -1.50549 4.93928 16.9071 -1.27268 -0.0 0.0 -0.0 6.71961 -10.3513 12.7793 -23.4253 -6.74743 66.5941 0.354662 -9.96477 0.0309192 7.53405 0.203882 -0.940102 0.792011 -2.23787 4.37447 -0.0 0.0 -0.0 11.0176 1.09527 -21.8416 -7.62653 26.2378 -51.5504 1.15439 29.7621 -0.30676 27.3555 -0.140489 3.45861 0.482143 -0.600835 -3.46976 0.0 0.0 0.0 5.62485 -9.75696 1.19537 -48.765 -1.11632 7.17852 41.8046 19.7081 -5.18488 -26.1328 0.0 0.0 -0.0 0.0 -0.0 6.64984 8.60898 -8.01809 -14.8997 -0.321514 -2.2575 18.1106 7.31278 2.5767 -30.0534 0.0 0.0 0.0 0.0 0.0 
